# xmcd
#
# Track frame offsets:
#	150
#	11322
#	24549
#	43734
#	59448
#	72168
#	90202
#	106974
#	121339
#	137106
#	156558
#
# Disc length: 2299 seconds
#
# Revision: 0
# Processed by: cddbd v1.5.1PL2 Copyright (c) Steve Scherf et al.
# Submitted via: dBpowerAMP V4.0
#
DISCID=8c08f90b
DTITLE=Various Artist - Les murs de poussiere
DYEAR=1977
DGENRE=Chanson
TTITLE0=Francis Cabrel - Automne (Colchiques dans les pres)
TTITLE1=Francis Cabrel - Ami
TTITLE2=Francis Cabrel - Ma ville
TTITLE3=Francis Cabrel - Petite Marie
TTITLE4=Francis Cabrel - Les murs de poussiere
TTITLE5=Francis Cabrel - Je reviens bientot
TTITLE6=Francis Cabrel - Imagine-toi
TTITLE7=Francis Cabrel - Je m'etais perdu
TTITLE8=Francis Cabrel - Madeleine
TTITLE9=Francis Cabrel - L'instant d'amour
TTITLE10=Francis Cabrel - Change de docteur
EXTD=
EXTT0=
EXTT1=
EXTT2=
EXTT3=
EXTT4=
EXTT5=
EXTT6=
EXTT7=
EXTT8=
EXTT9=
EXTT10=
PLAYORDER=
